<svg width="360" height="48" viewBox="0 0 360 48" fill="none" xmlns="http://www.w3.org/2000/svg">
<path d="M23.6546 2.77686L44.1401 36.6942H3.16912L23.6546 2.77686Z" fill="#077644"/>
<mask id="mask0" mask-type="alpha" maskUnits="userSpaceOnUse" x="23" y="2" width="21" height="35">
<rect x="23.6545" y="2.77686" width="20.34" height="34.1624" fill="#454242"/>
</mask>
<g mask="url(#mask0)">
<path d="M23.6546 2.77686L44.1401 36.6942H3.16912L23.6546 2.77686Z" fill="#FFBDBD"/>
</g>
<ellipse cx="65.6906" cy="19.858" rx="18.3813" ry="17.0812" fill="#3038FF"/>
<mask id="mask1" mask-type="alpha" maskUnits="userSpaceOnUse" x="47" y="2" width="31" height="29">
<ellipse cx="62.376" cy="16.7778" rx="15.0666" ry="14.001" fill="#CD1515"/>
</mask>
<g mask="url(#mask1)">
<rect x="62.376" y="16.7778" width="15.0666" height="14.001" fill="#3038FF"/>
</g>
<mask id="mask2" mask-type="alpha" maskUnits="userSpaceOnUse" x="47" y="2" width="38" height="35">
<ellipse cx="65.6906" cy="19.858" rx="18.3813" ry="17.0812" fill="#3038FF"/>
</mask>
<g mask="url(#mask2)">
<rect x="65.6907" y="2.77686" width="18.3813" height="17.0812" fill="#077644"/>
</g>
<mask id="mask3" mask-type="alpha" maskUnits="userSpaceOnUse" x="47" y="2" width="38" height="35">
<ellipse rx="18.3813" ry="17.0812" transform="matrix(-1 0 0 1 65.6905 19.858)" fill="#FFBDBD"/>
</mask>
<g mask="url(#mask3)">
<rect width="18.3813" height="17.0812" transform="matrix(-1 0 0 1 65.6904 19.858)" fill="#FFBDBD"/>
</g>
<path d="M120.632 30.0954H106.973L103.365 38.8626H97.437L114.035 0H114.395L130.993 38.8626H124.086L120.632 30.0954ZM118.622 24.9684L113.932 13.1764L109.086 24.9684H118.622Z" fill="#FFBDBD"/>
<path d="M155.076 38.8626L146.623 25.8913H146.004H140.592V38.8626H134.561V1.53809H145.128C149.32 1.53809 152.671 2.59767 155.179 4.71683C157.722 6.83598 158.994 9.77546 158.994 13.5352C158.994 15.8253 158.495 17.9615 157.499 19.944C156.537 21.8922 155.007 23.3962 152.911 24.4557L162.035 38.8626H155.076ZM140.592 20.1491H145.953C148.358 20.1491 150.093 19.4996 151.159 18.2008C152.258 16.8678 152.808 15.381 152.808 13.7403C152.808 12.7833 152.602 11.8263 152.19 10.8692C151.777 9.878 151.073 9.04059 150.076 8.35699C149.08 7.63921 147.774 7.28032 146.159 7.28032H140.592V20.1491Z" fill="#FFBDBD"/>
<path d="M172.288 1.53809V38.8626H166.257V1.53809H172.288Z" fill="#FFBDBD"/>
<path d="M199.06 30.0954H185.401L181.792 38.8626H175.865L192.462 0H192.823L209.421 38.8626H202.514L199.06 30.0954ZM197.05 24.9684L192.359 13.1764L187.514 24.9684H197.05Z" fill="#FFBDBD"/>
<path d="M224.345 20.2516C224.345 16.8336 225.204 13.672 226.922 10.7667C228.64 7.8272 230.96 5.48588 233.881 3.7427C236.836 1.99952 240.049 1.12794 243.52 1.12794C246.956 1.12794 250.135 1.99952 253.056 3.7427C256.011 5.48588 258.365 7.8272 260.117 10.7667C261.87 13.7061 262.746 16.8678 262.746 20.2516C262.746 23.7038 261.87 26.8825 260.117 29.7878C258.399 32.6931 256.062 35.0002 253.107 36.7092C250.152 38.4182 246.956 39.2727 243.52 39.2727C240.049 39.2727 236.836 38.4353 233.881 36.7605C230.96 35.0515 228.64 32.7444 226.922 29.8391C225.204 26.9338 224.345 23.738 224.345 20.2516ZM230.53 20.2516C230.53 22.6784 231.114 24.9001 232.283 26.9167C233.451 28.9333 235.032 30.5398 237.025 31.7361C239.052 32.9324 241.269 33.5305 243.674 33.5305C246.045 33.5305 248.21 32.9494 250.169 31.7873C252.128 30.591 253.674 28.9846 254.808 26.968C255.976 24.9172 256.561 22.6784 256.561 20.2516C256.561 17.8248 255.976 15.586 254.808 13.5352C253.64 11.4845 252.059 9.86091 250.066 8.66461C248.073 7.46831 245.891 6.87016 243.52 6.87016C241.114 6.87016 238.915 7.46831 236.922 8.66461C234.963 9.86091 233.4 11.4845 232.231 13.5352C231.097 15.586 230.53 17.8248 230.53 20.2516Z" fill="#FFBDBD"/>
<path d="M287.615 9.12604C284.385 7.45122 281.516 6.61382 279.007 6.61382C277.151 6.61382 275.674 7.02397 274.574 7.84429C273.509 8.66461 272.976 9.79255 272.976 11.2281C272.976 12.6295 273.646 13.8087 274.987 14.7657C276.361 15.6886 278.268 16.6114 280.708 17.5343C282.564 18.1837 284.144 18.9357 285.45 19.7902C286.79 20.6105 287.89 21.7384 288.749 23.174C289.608 24.6095 290.038 26.4211 290.038 28.6086C290.038 30.591 289.54 32.3855 288.543 33.9919C287.546 35.5984 286.103 36.8801 284.213 37.8372C282.323 38.7942 280.09 39.2727 277.512 39.2727C275.244 39.2727 273.011 38.9309 270.811 38.2473C268.612 37.5296 266.653 36.5554 264.935 35.3249L267.616 30.6594C268.887 31.6164 270.382 32.4197 272.1 33.0691C273.853 33.6843 275.468 33.9919 276.945 33.9919C278.767 33.9919 280.364 33.5647 281.739 32.7102C283.114 31.8215 283.801 30.4714 283.801 28.6599C283.801 27.2243 283.217 26.028 282.048 25.071C280.914 24.1139 279.316 23.2423 277.255 22.4562C275.124 21.6701 273.354 20.901 271.945 20.1491C270.536 19.3629 269.317 18.2863 268.286 16.9191C267.289 15.5177 266.791 13.7745 266.791 11.6895C266.791 8.64752 267.822 6.20365 269.884 4.35794C271.98 2.47804 274.729 1.46973 278.131 1.33301C280.605 1.33301 282.77 1.62354 284.626 2.2046C286.516 2.75148 288.268 3.53762 289.883 4.56302L287.615 9.12604Z" fill="#FFBDBD"/>
<path d="M301.122 1.53809V33.1203H319.626V38.8626H295.091V1.53809H301.122Z" fill="#FFBDBD"/>
<path d="M321.599 20.2516C321.599 16.8336 322.458 13.672 324.176 10.7667C325.894 7.8272 328.214 5.48588 331.134 3.7427C334.09 1.99952 337.303 1.12794 340.773 1.12794C344.21 1.12794 347.388 1.99952 350.309 3.7427C353.265 5.48588 355.619 7.8272 357.371 10.7667C359.124 13.7061 360 16.8678 360 20.2516C360 23.7038 359.124 26.8825 357.371 29.7878C355.653 32.6931 353.316 35.0002 350.361 36.7092C347.406 38.4182 344.21 39.2727 340.773 39.2727C337.303 39.2727 334.09 38.4353 331.134 36.7605C328.214 35.0515 325.894 32.7444 324.176 29.8391C322.458 26.9338 321.599 23.738 321.599 20.2516ZM327.784 20.2516C327.784 22.6784 328.368 24.9001 329.537 26.9167C330.705 28.9333 332.286 30.5398 334.279 31.7361C336.306 32.9324 338.523 33.5305 340.928 33.5305C343.299 33.5305 345.464 32.9494 347.423 31.7873C349.382 30.591 350.928 28.9846 352.062 26.968C353.23 24.9172 353.814 22.6784 353.814 20.2516C353.814 17.8248 353.23 15.586 352.062 13.5352C350.894 11.4845 349.313 9.86091 347.32 8.66461C345.327 7.46831 343.144 6.87016 340.773 6.87016C338.368 6.87016 336.169 7.46831 334.176 8.66461C332.217 9.86091 330.653 11.4845 329.485 13.5352C328.351 15.586 327.784 17.8248 327.784 20.2516Z" fill="#FFBDBD"/>
</svg>
